<svg width="69" height="89" viewBox="0 0 69 89" fill="none" xmlns="http://www.w3.org/2000/svg">
<path fill-rule="evenodd" clip-rule="evenodd" d="M38.1956 4.92847V27.107C38.1956 33.2315 33.2306 38.1963 27.1063 38.1963H4.92773V30.8035H27.1063C29.1477 30.8035 30.8027 29.1485 30.8027 27.107V4.92847H38.1956Z" fill="#E2EBFF"/>
<path fill-rule="evenodd" clip-rule="evenodd" d="M23.9211 3.60885C26.2318 1.29814 29.3659 0 32.6335 0H56.6786C63.4834 0 69 5.5165 69 12.3214V76.3929C69 83.1977 63.4834 88.7143 56.6786 88.7143H12.3214C5.5165 88.7143 0 83.1977 0 76.3929V32.6336C0 29.3658 1.29814 26.2318 3.60885 23.9211L23.9211 3.60885ZM32.6335 9.85714C31.98 9.85714 31.3531 10.1168 30.8913 10.5789L10.5789 30.8912C10.1168 31.3533 9.85714 31.9801 9.85714 32.6336V76.3929C9.85714 77.7536 10.9605 78.8571 12.3214 78.8571H56.6786C58.0393 78.8571 59.1429 77.7536 59.1429 76.3929V12.3214C59.1429 10.9605 58.0393 9.85714 56.6786 9.85714H32.6335Z" fill="#E2EBFF"/>
<path fill-rule="evenodd" clip-rule="evenodd" d="M34.5008 43.125C36.5423 43.125 38.1973 44.7799 38.1973 46.8214V52.9821H44.358C46.3995 52.9821 48.0544 54.6371 48.0544 56.6786C48.0544 58.7201 46.3995 60.375 44.358 60.375H38.1973V66.5357C38.1973 68.5772 36.5423 70.2321 34.5008 70.2321C32.4594 70.2321 30.8044 68.5772 30.8044 66.5357V60.375H24.6437C22.6022 60.375 20.9473 58.7201 20.9473 56.6786C20.9473 54.6371 22.6022 52.9821 24.6437 52.9821H30.8044V46.8214C30.8044 44.7799 32.4594 43.125 34.5008 43.125Z" fill="#E2EBFF"/>
</svg>
