<svg width="105" height="74" viewBox="0 0 105 74" fill="none" xmlns="http://www.w3.org/2000/svg">
<path fill-rule="evenodd" clip-rule="evenodd" d="M64.5377 1.53769C66.5879 -0.512563 69.9121 -0.512563 71.9623 1.53769L101.606 31.1813C104.681 34.2569 104.681 39.2431 101.606 42.3187L71.9623 71.9623C69.9121 74.0126 66.5879 74.0126 64.5377 71.9623C62.4874 69.9121 62.4874 66.5879 64.5377 64.5377L92.3254 36.75L64.5377 8.96231C62.4874 6.91206 62.4874 3.58794 64.5377 1.53769Z" fill="#141D31"/>
<path fill-rule="evenodd" clip-rule="evenodd" d="M64.5377 1.53769C66.5879 -0.512563 69.9121 -0.512563 71.9623 1.53769L101.606 31.1813C104.681 34.2569 104.681 39.2431 101.606 42.3187L71.9623 71.9623C69.9121 74.0126 66.5879 74.0126 64.5377 71.9623C62.4874 69.9121 62.4874 66.5879 64.5377 64.5377L92.3254 36.75L64.5377 8.96231C62.4874 6.91206 62.4874 3.58794 64.5377 1.53769Z" fill="#313F53"/>
<path fill-rule="evenodd" clip-rule="evenodd" d="M64.5377 1.53769C66.5879 -0.512563 69.9121 -0.512563 71.9623 1.53769L101.606 31.1813C104.681 34.2569 104.681 39.2431 101.606 42.3187L71.9623 71.9623C69.9121 74.0126 66.5879 74.0126 64.5377 71.9623C62.4874 69.9121 62.4874 66.5879 64.5377 64.5377L92.3254 36.75L64.5377 8.96231C62.4874 6.91206 62.4874 3.58794 64.5377 1.53769Z" fill="url(#paint0_linear_522_1929)"/>
<path fill-rule="evenodd" clip-rule="evenodd" d="M0 36.75C0 33.8505 2.35051 31.5 5.25 31.5H99.75C102.649 31.5 105 33.8505 105 36.75C105 39.6495 102.649 42 99.75 42H5.25C2.35051 42 0 39.6495 0 36.75Z" fill="#141D31"/>
<path fill-rule="evenodd" clip-rule="evenodd" d="M0 36.75C0 33.8505 2.35051 31.5 5.25 31.5H99.75C102.649 31.5 105 33.8505 105 36.75C105 39.6495 102.649 42 99.75 42H5.25C2.35051 42 0 39.6495 0 36.75Z" fill="#313F53"/>
<path fill-rule="evenodd" clip-rule="evenodd" d="M0 36.75C0 33.8505 2.35051 31.5 5.25 31.5H99.75C102.649 31.5 105 33.8505 105 36.75C105 39.6495 102.649 42 99.75 42H5.25C2.35051 42 0 39.6495 0 36.75Z" fill="url(#paint1_linear_522_1929)"/>
<defs>
<linearGradient id="paint0_linear_522_1929" x1="103.913" y1="36.75" x2="63" y2="36.75" gradientUnits="userSpaceOnUse">
<stop stop-color="#10192C"/>
<stop offset="1" stop-color="#10192C" stop-opacity="0"/>
</linearGradient>
<linearGradient id="paint1_linear_522_1929" x1="105" y1="36.75" x2="0" y2="36.75" gradientUnits="userSpaceOnUse">
<stop stop-color="#10192C"/>
<stop offset="1" stop-color="#10192C" stop-opacity="0"/>
</linearGradient>
</defs>
</svg>
