<svg width="215" height="383" viewBox="0 0 215 383" fill="none" xmlns="http://www.w3.org/2000/svg">
<path d="M56 298L189 303.5L211 238.5L213.5 208L205.5 182.5L169.5 114.5L152 47.5L127.5 33L110.5 67.5L119.5 122.5L92 182.5L53.5 222L23.5 275L4.5 309.5L56 298Z" fill="#CD685D"/>
<path d="M92 17L124.5 36L136 33L127.5 0L122 21L113.5 2.5L92 17Z" fill="#EE5F5B"/>
<path d="M195 63.5L142.5 82.5L144.5 53L195 63.5Z" fill="#FCDEA2"/>
<path d="M208 229.5L186 167L193 212L186 257.5L208 229.5Z" fill="#E38B7B"/>
<path d="M74.5492 252L100.049 217V231.5L61 280.5L74.5492 252Z" fill="#E38B7B"/>
<path d="M150.889 291.252C151.651 313.51 151.72 335.39 150.889 357.425" stroke="#1A2438" stroke-width="3" stroke-linecap="round"/>
<path d="M143.252 270.891C146.811 298.12 149.615 324.896 149.615 352.335" stroke="#1A2438" stroke-width="3" stroke-linecap="round"/>
<path d="M143.253 315.431C145.865 326.792 148.136 338.24 149.758 349.79C150.292 353.595 152.212 360.961 149.051 364.495C146.16 367.726 140.794 367.605 136.891 367.605" stroke="#1A2438" stroke-width="3" stroke-linecap="round"/>
<path d="M144.527 354.88C140.903 361.286 138.226 367.265 135.619 373.968" stroke="#1A2438" stroke-width="3" stroke-linecap="round"/>
<path d="M150.89 359.97C148.325 363.312 146.512 366.512 144.527 370.151" stroke="#1A2438" stroke-width="3" stroke-linecap="round"/>
<path d="M150.889 347.245C155.761 354.092 158.707 361.348 162.342 368.878" stroke="#1A2438" stroke-width="3" stroke-linecap="round"/>
<path d="M150.889 351.062L168.704 363.788" stroke="#1A2438" stroke-width="3" stroke-linecap="round"/>
<path d="M150.889 353.607H153.434" stroke="#1A2438" stroke-width="3" stroke-linecap="round"/>
<path d="M75.8086 300.16C111.762 295.264 148.154 291.316 183.693 283.758C187.041 283.046 196.583 280.007 193.167 279.799C181.71 279.1 170.007 279.799 158.525 279.799" stroke="#1A2438" stroke-width="3" stroke-linecap="round"/>
<path d="M64.3555 288.707C73.481 263.155 83.6368 238.76 96.3108 214.757C99.7353 208.272 102.812 202.607 105.077 195.81" stroke="#1A2438" stroke-width="3" stroke-linecap="round"/>
<path d="M169.977 171.632C182.51 202.138 194.688 239.066 187.792 272.164" stroke="#1A2438" stroke-width="3" stroke-linecap="round"/>
<path d="M111.44 174.177C108.732 181.76 113.463 158.183 113.844 150.14C114.736 131.3 115.888 112.768 117.803 94.0059" stroke="#1A2438" stroke-width="3" stroke-linecap="round"/>
<path d="M164.887 48.1938C170.371 77.9596 177.829 108.276 180.157 138.545" stroke="#1A2438" stroke-width="3" stroke-linecap="round"/>
<path d="M102.532 186.902C78.008 202.613 57.1657 218.256 39.7526 241.764C35.9573 246.887 32.6955 252.124 27.4512 255.621" stroke="#1A2438" stroke-width="3" stroke-linecap="round"/>
<path d="M85.9887 190.72C53.5214 216.097 6.55083 245.744 2 291.252" stroke="#1A2438" stroke-width="3" stroke-linecap="round"/>
<path d="M5.81836 305.25C43.9072 313.02 81.6963 312.886 120.348 312.886" stroke="#1A2438" stroke-width="3" stroke-linecap="round"/>
<path d="M31.2695 309.068C48.0491 309.782 64.4434 311.807 81.3234 311.047C114.041 309.575 146.483 304.599 178.886 300.16" stroke="#1A2438" stroke-width="3" stroke-linecap="round"/>
<path d="M152.16 297.615C172.749 293.69 194.926 291.375 213.243 281.072" stroke="#1A2438" stroke-width="3" stroke-linecap="round"/>
<path d="M175.068 188.175C183.961 196.061 192.291 204.1 199.742 213.414C205.887 221.095 207.726 227.238 211.972 235.26" stroke="#1A2438" stroke-width="3" stroke-linecap="round"/>
<path d="M192.883 288.707C193.069 283.872 196.212 278.363 197.69 274.073C202.496 260.126 205.474 246.118 207.022 231.442C208.179 220.481 207.612 209.242 209.426 198.355" stroke="#1A2438" stroke-width="3" stroke-linecap="round"/>
<path d="M104.342 183.505C111.851 156.507 120.718 129.639 133.275 104.526" stroke="#1A2438" stroke-width="3" stroke-linecap="round"/>
<path d="M200.523 180.377C189.697 155.476 181.308 129.574 170.504 104.656C165.851 93.9232 159.56 84.3748 154.387 74.0288" stroke="#1A2438" stroke-width="3" stroke-linecap="round"/>
<path d="M108.25 102.962C107.753 91.7801 106.034 80.5928 106.904 69.3803C107.834 57.3751 111.997 37.9507 126.67 36.3203C134.08 35.497 143.063 36.5617 149.478 40.6212C157.327 45.5882 160.388 56.6577 162.858 64.9491C167.504 80.5476 170.435 96.6417 174.718 112.345" stroke="#1A2438" stroke-width="3" stroke-linecap="round"/>
<path d="M129.365 308.62C130.335 315.665 132.442 323.629 130.147 330.515" stroke="#1A2438" stroke-width="3" stroke-linecap="round"/>
<path d="M119.98 302.364C121.189 314.085 123.736 325.702 126.236 337.205C126.897 340.243 126.937 345.652 130.146 346.936" stroke="#1A2438" stroke-width="3" stroke-linecap="round"/>
<path d="M115.289 294.544C120.064 312.749 122.461 332.056 123.109 350.846" stroke="#1A2438" stroke-width="3" stroke-linecap="round"/>
<path d="M126.237 322.695C125.547 327.913 124.358 334.62 123.109 339.117" stroke="#1A2438" stroke-width="3" stroke-linecap="round"/>
<path d="M117.635 272.649C119.933 299.407 117.635 326.379 117.635 353.192" stroke="#1A2438" stroke-width="3" stroke-linecap="round"/>
<path d="M119.982 347.718C113.347 353.839 106.097 359.688 100.129 366.486C99.0757 367.685 98.3259 368.527 98.8692 369.613" stroke="#1A2438" stroke-width="3" stroke-linecap="round"/>
<path d="M123.11 346.154C122.472 355.723 121.526 365.275 120.677 374.827C119.813 384.546 119.982 381.234 119.982 375.869" stroke="#1A2438" stroke-width="3" stroke-linecap="round"/>
<path d="M125.455 348.5C125.777 355.738 127.319 362.502 128.583 369.613" stroke="#1A2438" stroke-width="3" stroke-linecap="round"/>
<path d="M123.109 339.899C127.472 350.51 131.483 361.259 135.621 371.959" stroke="#1A2438" stroke-width="3" stroke-linecap="round"/>
<path d="M141.037 56.2145C149.46 62.6124 157.695 69.3668 165.184 76.8563" stroke="#1A2438" stroke-width="3" stroke-linecap="round"/>
<path d="M143.764 82.3089C155.077 76.8848 167.81 72.5461 180.352 71.3606C185.786 70.8469 191.279 71.0144 196.731 71.0144" stroke="#1A2438" stroke-width="3" stroke-linecap="round"/>
<path d="M142.984 54.6567C156.927 59.3173 170.979 63.946 185.263 67.4659C187.563 68.0325 190.788 68.0427 192.836 69.0671" stroke="#1A2438" stroke-width="3" stroke-linecap="round"/>
<path d="M123.9 52.3198C122.808 55.9785 121.473 59.6976 120.871 63.4846C120.643 64.915 121.789 64.7797 122.991 64.6314C126.182 64.2374 130.188 63.464 132.793 61.4507C134.332 60.2617 134.282 58.3409 134.416 56.604" stroke="#1A2438" stroke-width="3" stroke-linecap="round"/>
<path d="M135.197 33.6255C132.953 26.7383 130.748 19.843 128.056 13.1134C127.282 11.1764 126.276 6.02265 124.984 7.66089C124.097 8.78553 123.696 11.7424 123.318 13.0269C122.604 15.4509 121.982 17.8795 121.414 20.3403C121.156 21.4566 121.07 20.6483 120.83 19.9075C120.131 17.7577 119.36 15.6548 118.385 13.6111C116.985 10.6767 114.231 4.07962 109.925 5.10771C105.076 6.26509 102.822 11.737 101.356 15.9263C100.467 18.466 100.166 19.4697 101.832 21.5303C105.383 25.9199 109.06 30.3689 113.148 34.2746C114.776 35.8288 116.527 37.1307 118.839 37.1307" stroke="#1A2438" stroke-width="3" stroke-linecap="round"/>
<path d="M126.193 55.893C126.27 56.8951 126.282 58.3859 127.219 58.9924C128.091 59.5566 129.009 58.0911 129.293 57.4812C129.791 56.4114 128.695 52.9738 127.442 54.6439" stroke="#1A2438" stroke-width="3" stroke-linecap="round"/>
</svg>
