<svg width="118" height="118" viewBox="0 0 118 118" fill="none" xmlns="http://www.w3.org/2000/svg">
<path d="M115.893 2.10714C114.544 0.757962 112.714 0 110.806 0H7.19423C5.2862 0 3.45632 0.757962 2.10714 2.10714C0.757962 3.45632 0 5.28621 0 7.19424V110.806C0 112.714 0.757962 114.544 2.10714 115.893C3.45632 117.242 5.28621 118 7.19424 118H110.806C112.714 118 114.544 117.242 115.893 115.893C117.242 114.544 118 112.714 118 110.806V7.19423C118 5.2862 117.242 3.45632 115.893 2.10714ZM109.571 101.571C109.571 105.99 105.99 109.571 101.571 109.571H41.7143C37.296 109.571 33.7143 105.99 33.7143 101.571V100.714C33.7143 96.296 37.296 92.7143 41.7143 92.7143H48.1557C51.1859 92.7143 53.8522 94.5678 56.0617 96.6414C59.0444 99.4408 63.2365 101.143 67.4286 101.143C76.7 101.143 84.2857 93.5571 84.2857 84.2857C84.2857 75.0143 76.7 67.4286 67.4286 67.4286C60.9268 67.4286 55.254 71.1591 52.4449 76.5854C50.4138 80.5091 46.9897 84.2857 42.5714 84.2857H33.2857C28.8674 84.2857 25.2857 87.8674 25.2857 92.2857V101.571C25.2857 105.99 21.704 109.571 17.2857 109.571H16.4286C12.0103 109.571 8.42857 105.99 8.42857 101.571V16.4286C8.42857 12.0103 12.0103 8.42857 16.4286 8.42857H17.2857C21.704 8.42857 25.2857 12.0103 25.2857 16.4286V22.87C25.2857 25.9002 23.4322 28.5665 21.3586 30.776C18.5592 33.7587 16.8571 37.9508 16.8571 42.1429C16.8571 51.4143 24.4429 59 33.7143 59C40.2161 59 45.8889 55.2695 48.6979 49.8432C50.7291 45.9194 54.1531 42.1429 58.5714 42.1429H59.4286C63.8469 42.1429 67.2709 45.9194 69.3021 49.8432C72.1111 55.2695 77.7839 59 84.2857 59C93.5571 59 101.143 51.4143 101.143 42.1429C101.143 32.8714 93.5571 25.2857 84.2857 25.2857C80.0936 25.2857 75.9016 26.9877 72.9188 29.7871C70.7093 31.8608 68.043 33.7143 65.0129 33.7143H52.9871C49.9569 33.7143 47.2907 31.8608 45.0812 29.7871C43.9965 28.7691 42.7518 27.8962 41.4054 27.1975C37.4837 25.1624 33.7143 21.704 33.7143 17.2857V16.4286C33.7143 12.0103 37.296 8.42857 41.7143 8.42857H101.571C105.99 8.42857 109.571 12.0103 109.571 16.4286V101.571ZM59 84.2857C59 79.2286 62.3714 75.8571 67.4286 75.8571C72.4857 75.8571 75.8571 79.2286 75.8571 84.2857C75.8571 89.3429 72.4857 92.7143 67.4286 92.7143C62.3714 92.7143 59 89.3429 59 84.2857ZM33.7143 33.7143C38.7714 33.7143 42.1429 37.0857 42.1429 42.1429C42.1429 47.2 38.7714 50.5714 33.7143 50.5714C28.6571 50.5714 25.2857 47.2 25.2857 42.1429C25.2857 37.0857 28.6571 33.7143 33.7143 33.7143ZM84.2857 33.7143C89.3429 33.7143 92.7143 37.0857 92.7143 42.1429C92.7143 47.2 89.3429 50.5714 84.2857 50.5714C79.2286 50.5714 75.8571 47.2 75.8571 42.1429C75.8571 37.0857 79.2286 33.7143 84.2857 33.7143Z" fill="#313F53"/>
<path d="M115.893 2.10714C114.544 0.757962 112.714 0 110.806 0H7.19423C5.2862 0 3.45632 0.757962 2.10714 2.10714C0.757962 3.45632 0 5.28621 0 7.19424V110.806C0 112.714 0.757962 114.544 2.10714 115.893C3.45632 117.242 5.28621 118 7.19424 118H110.806C112.714 118 114.544 117.242 115.893 115.893C117.242 114.544 118 112.714 118 110.806V7.19423C118 5.2862 117.242 3.45632 115.893 2.10714ZM109.571 101.571C109.571 105.99 105.99 109.571 101.571 109.571H41.7143C37.296 109.571 33.7143 105.99 33.7143 101.571V100.714C33.7143 96.296 37.296 92.7143 41.7143 92.7143H48.1557C51.1859 92.7143 53.8522 94.5678 56.0617 96.6414C59.0444 99.4408 63.2365 101.143 67.4286 101.143C76.7 101.143 84.2857 93.5571 84.2857 84.2857C84.2857 75.0143 76.7 67.4286 67.4286 67.4286C60.9268 67.4286 55.254 71.1591 52.4449 76.5854C50.4138 80.5091 46.9897 84.2857 42.5714 84.2857H33.2857C28.8674 84.2857 25.2857 87.8674 25.2857 92.2857V101.571C25.2857 105.99 21.704 109.571 17.2857 109.571H16.4286C12.0103 109.571 8.42857 105.99 8.42857 101.571V16.4286C8.42857 12.0103 12.0103 8.42857 16.4286 8.42857H17.2857C21.704 8.42857 25.2857 12.0103 25.2857 16.4286V22.87C25.2857 25.9002 23.4322 28.5665 21.3586 30.776C18.5592 33.7587 16.8571 37.9508 16.8571 42.1429C16.8571 51.4143 24.4429 59 33.7143 59C40.2161 59 45.8889 55.2695 48.6979 49.8432C50.7291 45.9194 54.1531 42.1429 58.5714 42.1429H59.4286C63.8469 42.1429 67.2709 45.9194 69.3021 49.8432C72.1111 55.2695 77.7839 59 84.2857 59C93.5571 59 101.143 51.4143 101.143 42.1429C101.143 32.8714 93.5571 25.2857 84.2857 25.2857C80.0936 25.2857 75.9016 26.9877 72.9188 29.7871C70.7093 31.8608 68.043 33.7143 65.0129 33.7143H52.9871C49.9569 33.7143 47.2907 31.8608 45.0812 29.7871C43.9965 28.7691 42.7518 27.8962 41.4054 27.1975C37.4837 25.1624 33.7143 21.704 33.7143 17.2857V16.4286C33.7143 12.0103 37.296 8.42857 41.7143 8.42857H101.571C105.99 8.42857 109.571 12.0103 109.571 16.4286V101.571ZM59 84.2857C59 79.2286 62.3714 75.8571 67.4286 75.8571C72.4857 75.8571 75.8571 79.2286 75.8571 84.2857C75.8571 89.3429 72.4857 92.7143 67.4286 92.7143C62.3714 92.7143 59 89.3429 59 84.2857ZM33.7143 33.7143C38.7714 33.7143 42.1429 37.0857 42.1429 42.1429C42.1429 47.2 38.7714 50.5714 33.7143 50.5714C28.6571 50.5714 25.2857 47.2 25.2857 42.1429C25.2857 37.0857 28.6571 33.7143 33.7143 33.7143ZM84.2857 33.7143C89.3429 33.7143 92.7143 37.0857 92.7143 42.1429C92.7143 47.2 89.3429 50.5714 84.2857 50.5714C79.2286 50.5714 75.8571 47.2 75.8571 42.1429C75.8571 37.0857 79.2286 33.7143 84.2857 33.7143Z" fill="url(#paint0_linear_521_3159)"/>
<defs>
<linearGradient id="paint0_linear_521_3159" x1="118" y1="59" x2="0" y2="59" gradientUnits="userSpaceOnUse">
<stop stop-color="#10192C"/>
<stop offset="1" stop-color="#10192C" stop-opacity="0.42"/>
</linearGradient>
</defs>
</svg>
