<svg width="106" height="106" viewBox="0 0 106 106" fill="none" xmlns="http://www.w3.org/2000/svg">
<rect width="106" height="106" rx="30" fill="#313F53"/>
<rect width="106" height="106" rx="30" fill="url(#paint0_linear_522_1897)"/>
<path d="M67.8796 76.7893H70.8231V82.6799H67.8796V76.7893Z" fill="white"/>
<path d="M45.5049 64.1912C41.6528 60.3367 36.9676 57.7149 32.105 56.6532V61.0432C35.9475 61.8837 39.6513 63.9561 42.6956 67.0023C45.5258 69.8343 47.5146 73.2343 48.4554 76.7893H52.8466C51.6817 72.2149 49.1427 67.8313 45.5049 64.1912Z" fill="white"/>
<path d="M40.4993 69.2C38.0853 66.7845 35.1517 65.1394 32.105 64.4694V68.8595C34.1316 69.3082 36.0839 70.4039 37.6901 72.011C39.0813 73.4031 40.0878 75.0539 40.6243 76.7893H45.0253C44.2589 74.033 42.6986 71.4007 40.4993 69.2Z" fill="white"/>
<path d="M32.105 73.1768V76.7893L36.255 76.7893C35.956 76.0411 35.4897 75.3496 34.911 74.7705C34.4868 74.3461 34.004 73.9804 33.481 73.6984C33.0448 73.4632 32.5819 73.2852 32.105 73.1768Z" fill="white"/>
<path d="M80.0773 23.3199L25.0859 32.4497L25.5679 35.0236L32.105 33.9383V48.8466V53.2371C33.3914 53.5187 34.6673 53.8943 35.9236 54.3593C37.423 54.9144 38.8945 55.5968 40.3222 56.3984C42.9545 57.8764 45.4383 59.7599 47.6752 61.9982C51.9423 66.268 54.9098 71.4186 56.2469 76.7893H60.6363H67.8796H70.8231L73.7666 76.7893V56.3984H75.1252V54.3593H73.7666V27.0215L80.5593 25.8938L80.0773 23.3199Z" fill="white"/>
<defs>
<linearGradient id="paint0_linear_522_1897" x1="106" y1="53" x2="0" y2="53" gradientUnits="userSpaceOnUse">
<stop stop-color="#10192C"/>
<stop offset="1" stop-color="#10192C" stop-opacity="0"/>
</linearGradient>
</defs>
</svg>
