<svg width="169" height="171" viewBox="0 0 169 171" fill="none" xmlns="http://www.w3.org/2000/svg">
<path d="M84.603 170.061C130.789 170.061 168.229 131.991 168.229 85.0303C168.229 38.0694 130.789 0 84.603 0C38.4174 0 0.976562 38.0694 0.976562 85.0303C0.976562 131.991 38.4174 170.061 84.603 170.061Z" fill="#313F53"/>
<path d="M84.603 170.061C130.789 170.061 168.229 131.991 168.229 85.0303C168.229 38.0694 130.789 0 84.603 0C38.4174 0 0.976562 38.0694 0.976562 85.0303C0.976562 131.991 38.4174 170.061 84.603 170.061Z" fill="url(#paint0_linear_522_1916)"/>
<path fill-rule="evenodd" clip-rule="evenodd" d="M92.9651 42.5152C92.9651 37.8191 89.2211 34.0122 84.6025 34.0122C79.9846 34.0122 76.2398 37.8191 76.2398 42.5152V76.5274H42.7884C38.1698 76.5274 34.4258 80.3342 34.4258 85.0304C34.4258 89.7266 38.1699 93.5335 42.7884 93.5335H76.2398V127.546C76.2398 132.242 79.9846 136.049 84.6025 136.049C89.2211 136.049 92.9651 132.242 92.9651 127.546V93.5335H126.415C131.034 93.5335 134.777 89.7266 134.777 85.0304C134.777 80.3342 131.034 76.5274 126.415 76.5274H92.9651V42.5152Z" fill="#E2EBFF"/>
<defs>
<linearGradient id="paint0_linear_522_1916" x1="168.229" y1="85.0303" x2="0.976562" y2="85.0303" gradientUnits="userSpaceOnUse">
<stop stop-color="#10192C"/>
<stop offset="1" stop-color="#10192C" stop-opacity="0"/>
</linearGradient>
</defs>
</svg>
